<svg width="200" height="200" viewBox="0 0 200 200" fill="none" xmlns="http://www.w3.org/2000/svg">
<!-- Mobile -->
<rect x="30" y="30" width="35" height="60" rx="6" fill="#007acc" fill-opacity="0.8"/>
<rect x="33" y="35" width="29" height="50" rx="3" fill="#0f172a"/>
<text x="47" y="95" text-anchor="middle" fill="#e2e8f0" font-family="monospace" font-size="8">Mobile</text>

<!-- Desktop -->
<rect x="80" y="40" width="70" height="45" rx="4" fill="#10b981" fill-opacity="0.8"/>
<rect x="85" y="44" width="60" height="35" rx="2" fill="#0f172a"/>
<rect x="80" y="80" width="70" height="8" rx="2" fill="#10b981" fill-opacity="0.8"/>
<text x="115" y="95" text-anchor="middle" fill="#e2e8f0" font-family="monospace" font-size="8">Web</text>

<!-- Server -->
<rect x="40" y="120" width="120" height="30" rx="6" fill="#1e293b" stroke="#f59e0b" stroke-width="2"/>
<circle cx="55" cy="135" r="3" fill="#10b981"/>
<circle cx="70" cy="135" r="3" fill="#f59e0b"/>
<circle cx="85" cy="135" r="3" fill="#ef4444"/>
<text x="100" y="140" text-anchor="middle" fill="#e2e8f0" font-family="monospace" font-size="10">Flow API</text>
<text x="100" y="165" text-anchor="middle" fill="#e2e8f0" font-family="monospace" font-size="8">Multi-Tenant Core</text>

<!-- Connections -->
<path d="M47 90 L70 120" stroke="#007acc" stroke-width="2" opacity="0.6"/>
<path d="M115 90 L130 120" stroke="#10b981" stroke-width="2" opacity="0.6"/>

<!-- Data flow indicators -->
<g transform="translate(170,60)" opacity="0.6">
<circle cx="0" cy="0" r="4" fill="#007acc"/>
<path d="M-8 0 L8 0 M4 -4 L8 0 L4 4" stroke="#007acc" stroke-width="1"/>
</g>
</svg>
